<?xml version="1.0" standalone="no"?><!DOCTYPE svg PUBLIC "-//W3C//DTD SVG 1.1//EN" "http://www.w3.org/Graphics/SVG/1.1/DTD/svg11.dtd"><svg t="1508220847488" class="icon" style="" viewBox="0 0 1024 1024" version="1.1" xmlns="http://www.w3.org/2000/svg" p-id="998" xmlns:xlink="http://www.w3.org/1999/xlink" width="20" height="20"><defs><style type="text/css"></style></defs><path d="M60.278537 487.031808 60.278537 536.968192 536.968192 60.278537 487.031808 60.278537 625.474525 198.721236C645.303119 218.549831 679.220807 208.465991 684.996078 181.02528 697.858966 119.908299 752.070338 75.411668 815.363443 75.411668 888.941515 75.411668 948.588332 135.058485 948.588332 208.636557 948.588332 271.929662 904.091701 326.141034 842.97472 339.003922 815.534009 344.779193 805.450169 378.696881 825.278764 398.525475L963.721463 536.968192 963.721463 487.031808 821.98362 628.769668 881.81993 648.166947C866.119292 549.897234 781.052963 476.689655 680.535252 476.689655 567.954432 476.689655 476.689655 567.954432 476.689655 680.535252 476.689655 781.052963 549.897234 866.119292 648.166947 881.81993L628.769668 821.98362 487.031808 963.721463 536.968192 963.721463 60.278537 487.031808ZM536.968192 1013.657847 678.706035 871.919987C699.091262 851.534777 687.77675 816.632038 659.308756 812.083694 595.175848 801.837127 547.310345 746.217984 547.310345 680.535252 547.310345 606.957162 606.957162 547.310345 680.535252 547.310345 746.217984 547.310345 801.837127 595.175848 812.083694 659.308756 816.632038 687.77675 851.534777 699.091262 871.919987 678.706035L1013.657847 536.968192C1027.447384 523.178637 1027.447384 500.821363 1013.657847 487.031808L875.21513 348.589109 857.519157 408.110663C951.156701 388.403377 1019.209022 305.493522 1019.209022 208.636557 1019.209022 96.055755 927.944245 4.790973 815.363443 4.790973 718.506478 4.790973 635.596623 72.843299 615.889337 166.480843L675.410891 148.78487 536.968192 10.34216C523.178637-3.447386 500.821363-3.447386 487.031808 10.34216L10.342153 487.031808C-3.447384 500.821363-3.447384 523.178637 10.342153 536.968192L487.031808 1013.657847C500.821363 1027.447384 523.178637 1027.447384 536.968192 1013.657847Z" p-id="999" fill="#bfbfbf"></path></svg>