<?xml version="1.0" standalone="no"?><!DOCTYPE svg PUBLIC "-//W3C//DTD SVG 1.1//EN" "http://www.w3.org/Graphics/SVG/1.1/DTD/svg11.dtd"><svg t="1508221056221" class="icon" style="" viewBox="0 0 1182 1024" version="1.1" xmlns="http://www.w3.org/2000/svg" p-id="2442" xmlns:xlink="http://www.w3.org/1999/xlink" width="23.0859375" height="20"><defs><style type="text/css"></style></defs><path d="M667.606468 56.124966l0 68.472458 0 40.129351 37.884352 13.049055c43.075911 14.873116 82.5037 37.603727 117.020554 67.630584l30.167169 26.378734 34.657166-20.064675 59.492464-34.376542 77.031515 133.296794-59.352151 34.236229-34.657166 20.064675 7.57687 39.287476c4.349685 22.449986 6.594683 45.180597 6.594683 67.770896s-2.244999 45.32091-6.594683 67.770896l-7.57687 39.287476 34.657166 20.064675 59.352151 34.236229-77.031515 133.296794-59.492464-34.376542-34.657166-20.064675-30.167169 26.378734c-34.516854 30.167169-73.944642 52.89778-117.020554 67.630584l-37.884352 13.049055 0 40.129351 0 68.472458L513.683749 967.875034l0-68.472458 0-40.129351-37.884352-13.049055c-43.075911-14.873116-82.5037-37.603727-117.020554-67.630584l-30.167169-26.378734-34.657166 20.064675L234.321732 806.515758l-77.031515-133.296794 59.352151-34.236229 34.657166-20.064675-7.57687-39.287476c-4.349685-22.449986-6.594683-45.180597-6.594683-67.770896 0-22.449986 2.244999-45.32091 6.594683-67.770896l7.57687-39.287476-34.657166-20.064675-59.352151-34.236229 77.031515-133.296794 59.492464 34.376542 34.657166 20.064675 30.167169-26.378734c34.516854-30.167169 73.944642-52.89778 117.020554-67.630584l37.884352-13.049055L513.543437 124.597424l0-68.472458L667.606468 56.124966M590.574952 721.626747c28.343108 0 55.704029-5.612497 81.661825-16.556865 24.97561-10.523431 47.425596-25.677172 66.648397-44.899973 19.222801-19.222801 34.376542-41.672787 44.899973-66.648397 10.944368-25.957797 16.556865-53.318717 16.556865-81.661825s-5.612497-55.704029-16.556865-81.661825c-10.523431-24.97561-25.677172-47.425596-44.899973-66.648397-19.222801-19.222801-41.672787-34.376542-66.648397-44.899973-25.957797-10.944368-53.318717-16.556865-81.661825-16.556865s-55.704029 5.612497-81.661825 16.556865c-24.97561 10.523431-47.425596 25.677172-66.648397 44.899973-19.222801 19.222801-34.376542 41.672787-44.899973 66.648397-10.944368 25.957797-16.556865 53.318717-16.556865 81.661825s5.612497 55.704029 16.556865 81.661825c10.523431 24.97561 25.677172 47.425596 44.899973 66.648397s41.672787 34.376542 66.648397 44.899973C534.870924 716.01425 562.372157 721.626747 590.574952 721.626747M685.566457 0 495.583448 0c-21.046862 0-38.164977 17.118115-38.164977 38.164977l0 86.57276c-50.372157 17.258427-96.394629 44.198411-135.682105 78.43464l-75.067142-43.356536c-6.033434-3.50781-12.628117-5.051247-19.082488-5.051247-13.189367 0-25.957797 6.875308-33.11373 19.082488L99.762127 338.152919c-10.523431 18.240614-4.349685 41.532475 13.890929 52.055906l74.926829 43.216224c-4.910935 25.396547-7.57687 51.634968-7.57687 78.43464s2.665936 53.038093 7.57687 78.43464L113.653056 633.510551c-18.240614 10.523431-24.554673 33.815292-13.890929 52.055906l94.991505 164.586462c7.015621 12.20718 19.924363 19.082488 33.11373 19.082488 6.454371 0 13.049055-1.683749 19.082488-5.051247l75.067142-43.356536c39.287476 34.236229 85.309948 61.176213 135.682105 78.43464l0 86.57276c0 21.046862 17.118115 38.164977 38.164977 38.164977l189.983009 0c21.046862 0 38.164977-17.118115 38.164977-38.164977l0-86.57276c50.372157-17.258427 96.394629-44.198411 135.682105-78.43464l75.067142 43.356536c6.033434 3.50781 12.628117 5.051247 19.082488 5.051247 13.189367 0 25.957797-6.875308 33.11373-19.082488l94.991505-164.586462c10.523431-18.240614 4.349685-41.532475-13.890929-52.055906l-74.926829-43.216224c4.910935-25.396547 7.57687-51.634968 7.57687-78.43464s-2.665936-53.038093-7.57687-78.43464l74.926829-43.216224c18.240614-10.523431 24.554673-33.815292 13.890929-52.055906L986.536585 173.706769c-7.015621-12.20718-19.924363-19.082488-33.11373-19.082488-6.454371 0-13.049055 1.683749-19.082488 5.051247l-75.067142 43.356536c-39.287476-34.236229-85.309948-61.176213-135.682105-78.43464l0-86.57276C723.731433 16.977802 706.613319 0 685.566457 0L685.566457 0zM590.574952 665.501781c-84.889011 0-153.642094-68.753083-153.642094-153.642094 0-84.889011 68.753083-153.642094 153.642094-153.642094 84.889011 0 153.642094 68.753083 153.642094 153.642094C744.217046 596.748698 675.463963 665.501781 590.574952 665.501781L590.574952 665.501781z" p-id="2443" fill="#bfbfbf"></path></svg>